<svg class="w-2/3" xmlns="http://www.w3.org/2000/svg" width="100%" height="100%" viewBox="0 0 80 80" preserveAspectRatio="xMidYMid meet">
    <path d="M7.66 64.67C.69 62.38 0 61.51 0 55V23.34c0-2.25.56-3.68 2.65-4.85Q18 9.74 33.25.74a4.32 4.32 0 0 1 5 .08Q53.29 9.69 68.5 18.35a4.54 4.54 0 0 1 2.65 4.52q-.14 17.51 0 35a4.49 4.49 0 0 1-2.54 4.56c-8.5 4.77-16.91 9.7-25.38 14.6-2-5-1.12-7.94 3-10.37 5-2.94 10.15-5.77 15.1-8.85a4.87 4.87 0 0 0 2.22-3.27c.17-9.2.09-18.41.07-27.61a11 11 0 0 0-.4-1.72 31.33 31.33 0 0 0-3.07 1.33c-7.1 4.07-14.14 8.27-21.31 12.22-2.3 1.28-3 2.82-3 5.36.13 12.22.06 24.45.06 36.72-6-1.37-7.67-3.31-7.67-8.93 0-10.66.1-21.32-.07-32a5.39 5.39 0 0 1 3.25-5.52C38.1 30.83 44.55 27 51.06 23.21c1.52-.88 3-1.82 4.55-2.76-3.91-4.22-5.39-4.48-9.68-2-7.09 4.11-14.15 8.27-21.3 12.26a5 5 0 0 0-2.92 5.07c.12 11 .05 22 .05 33v3.7c-5.35-.79-7.39-3-7.39-7.92 0-11.12.05-22.23 0-33.34a4.7 4.7 0 0 1 2.74-4.79C23.66 22.8 30.13 19 36.63 15.2c1.61-.93 3.18-1.93 4.82-2.93-3.9-4.2-5.37-4.46-9.71-1.95-6.8 3.93-13.55 8-20.44 11.73-2.66 1.46-3.78 3.12-3.72 6.29.21 12 .08 24.01.08 36.33z" fill="#ef4444"></path>
    <path d="M42.46 61.39v-16a2.27 2.27 0 0 1 1-1.61c4.28-2.58 8.61-5.06 13.6-8v16a2.29 2.29 0 0 1-.95 1.63C51.8 56 47.46 58.5 42.46 61.39z" fill="#4f46e5"></path>
</svg>
